<svg xmlns="http://www.w3.org/2000/svg" xmlns:xlink="http://www.w3.org/1999/xlink" width="100%" height="100%" version="1.1" viewBox="0 0 24 24" xml:space="preserve" style="fill-rule:evenodd;clip-rule:evenodd;stroke-linejoin:round;stroke-miterlimit:2"><rect width="24" height="24" x="0" y="0" style="fill:none;fill-rule:nonzero"/><path d="M20,2L4,2C2.9,2 2,2.9 2,4L2,16C2,17.1 2.9,18 4,18L18,18L22,22L22,4C22,2.9 21.1,2 20,2ZM18,14L6,14L6,12L18,12L18,14ZM18,11L6,11L6,9L18,9L18,11ZM18,8L6,8L6,6L18,6L18,8Z" style="fill:#0162ff;fill-rule:nonzero"/></svg>